<svg width="24" height="24" viewBox="0 0 24 24" fill="none" xmlns="http://www.w3.org/2000/svg">
<path d="M12.5029 7.37226C9.66547 7.37226 7.37603 9.66127 7.37603 12.5004C7.37603 15.3395 9.66447 17.6285 12.5029 17.6285C15.3413 17.6285 17.6297 15.3395 17.6297 12.5004C17.6297 9.66127 15.3413 7.37226 12.5029 7.37226ZM12.5029 15.8337C10.6687 15.8337 9.17032 14.339 9.17032 12.5004C9.17032 10.6618 10.6647 9.167 12.5029 9.167C14.341 9.167 15.8354 10.6618 15.8354 12.5004C15.8354 14.339 14.336 15.8337 12.5029 15.8337ZM19.0345 7.16299C19.0345 7.82767 18.4995 8.35882 17.8389 8.35882C17.1784 8.35882 16.6434 7.82368 16.6434 7.16299C16.6434 6.50229 17.1784 5.96716 17.8389 5.96716C18.4995 5.96716 19.0345 6.50229 19.0345 7.16299ZM22.4298 8.37675C22.354 6.77434 21.9884 5.35529 20.8148 4.18637C19.6462 3.01645 18.2275 2.65072 16.6255 2.571C14.9746 2.47633 10.0261 2.47633 8.37529 2.571C6.77826 2.64674 5.35956 3.01246 4.18595 4.18238C3.01234 5.3523 2.65069 6.77036 2.57098 8.37277C2.47634 10.024 2.47634 14.9727 2.57098 16.624C2.6467 18.2264 3.01234 19.6455 4.18595 20.8144C5.35956 21.9833 6.77427 22.35 8.37529 22.4297C10.0261 22.5234 14.9746 22.5234 16.6255 22.4297C18.2275 22.354 19.6462 21.9883 20.8148 20.8144C21.9834 19.6455 22.3501 18.2254 22.4298 16.624C22.5234 14.9727 22.5234 10.028 22.4298 8.37675ZM20.2967 18.3958C19.949 19.2708 19.2746 19.9444 18.3958 20.2972C17.0798 20.8194 13.9564 20.6988 12.5019 20.6988C11.0473 20.6988 7.91999 20.8144 6.6079 20.2972C5.73317 19.9494 5.05968 19.2747 4.707 18.3958C4.18495 17.0794 4.3055 13.9553 4.3055 12.5004C4.3055 11.0454 4.18993 7.91736 4.707 6.60493C5.0547 5.72998 5.72918 5.05633 6.6079 4.70357C7.92398 4.18139 11.0473 4.30197 12.5019 4.30197C13.9564 4.30197 17.0837 4.18637 18.3958 4.70357C19.2706 5.05135 19.9441 5.726 20.2967 6.60493C20.8188 7.92134 20.6982 11.0454 20.6982 12.5004C20.6982 13.9553 20.8188 17.0834 20.2967 18.3958Z" fill="#AEACA7"/>
</svg>
