<svg xmlns="http://www.w3.org/2000/svg" width="41" height="40" viewBox="0 0 41 40" fill="none">
  <circle cx="20.364" cy="20" r="19.5" stroke="#313131"/>
  <circle cx="20.364" cy="20" r="11.5" stroke="#313131"/>
  <path d="M25.864 20C25.864 23.2529 25.2037 26.1732 24.1594 28.2617C23.1002 30.3801 21.7295 31.5 20.364 31.5C18.9986 31.5 17.6278 30.3801 16.5686 28.2617C15.5243 26.1732 14.864 23.2529 14.864 20C14.864 16.7471 15.5243 13.8268 16.5686 11.7383C17.6278 9.6199 18.9986 8.5 20.364 8.5C21.7295 8.5 23.1002 9.6199 24.1594 11.7383C25.2037 13.8268 25.864 16.7471 25.864 20Z" stroke="#313131"/>
  <path d="M9.86401 16H30.864" stroke="#313131"/>
  <path d="M9.86401 24H30.864" stroke="#313131"/>
</svg>